<?xml version="1.0" encoding="utf-8"?>
<!-- Generator: Adobe Illustrator 23.1.1, SVG Export Plug-In . SVG Version: 6.00 Build 0)  -->
<svg version="1.1" id="레이어_1" xmlns="http://www.w3.org/2000/svg" xmlns:xlink="http://www.w3.org/1999/xlink" x="0px"
	 y="0px" viewBox="0 0 126 124" style="enable-background:new 0 0 126 124;" xml:space="preserve">
<style type="text/css">
	.st0{fill:none;stroke:#DF2D00;stroke-width:2;stroke-linecap:round;stroke-linejoin:round;stroke-miterlimit:10;}
	.st1{fill:none;stroke:#DE00C9;stroke-width:2;stroke-linecap:round;stroke-linejoin:round;stroke-miterlimit:10;}
	.st2{fill:none;stroke:#321BD3;stroke-width:2;stroke-linecap:round;stroke-linejoin:round;stroke-miterlimit:10;}
	.st3{fill:none;stroke:#00DE5A;stroke-width:2;stroke-linecap:round;stroke-linejoin:round;stroke-miterlimit:10;}
	.st4{fill:none;stroke:#002A98;stroke-width:2;stroke-miterlimit:10;}
	.st5{fill:none;stroke:#D2A5C8;stroke-width:2;stroke-miterlimit:10;}
	.st6{fill:none;stroke:#FF0078;stroke-width:2;stroke-miterlimit:10;}
</style>
<path class="st0" d="M3.54,16.51c0,0,4.9-7.82,11.65-7.46c6.74,0.36,8.21,7.58,7.7,15.17s-3.83,40.92-4.62,46.27
	c-0.78,5.35-2.81,19.93-3.65,21.73c-0.85,1.8-1.52,3.41-3.95,4.1"/>
<path class="st1" d="M6.06,78.71c0,0-4.4-1.24-1.72-5.02c2.81-3.95,16.44-14.54,22.7-17.79c6.25-3.26,16.96-7.99,21.07-8.93
	c4.1-0.95,4.28,1.28,3.81,2.21"/>
<path class="st2" d="M49.34,2.18c0,0-3.65,17.14-6.59,34.55c-1.89,11.16-3.36,22.91-3.78,28.73c-0.62,8.62-1.65,15.38-1.69,20.41
	c-0.02,3.04,0.47,5.04,1.23,7.62"/>
<path class="st3" d="M48.25,59.32c0,0-4.07,5.7-2.17,10.5s6.03-0.22,9.78-4.59s3.76-5.69,6.47-4.13c2.71,1.55-2.75,25.42-4.16,28.74
	s-10.14,30.78-15.32,31.71s0.3-18.8,6.49-27.09s19.84-29.08,21.26-33.7"/>
<path class="st4" d="M70.8,60.19c0,0,1.84-3.66,5.3-1.87c3.46,1.79,1.93,7.78,0.95,9.17s-5.73,2.76-6.53-1.66
	c-0.8-4.42,0.63-6.9,3.17-7.62s3.38,4.7,5.86,4.51c2.49-0.19,1.84,1.41,5.45-1.58"/>
<path class="st5" d="M94.47,59.49c0,0-11.01-3.12-11.5,6.96s9.96,2.05,12.84-1.76s19.56-40.63,18.24-56.57s-17.81,30.18-17.8,48.69
	s-1.91,22.69,7.03,33.03"/>
<path class="st6" d="M105.29,59.32c0,0-2.6,9.62-0.61,9.51s7.51-9.48,7.97-12.03c0.46-2.55-2.25,10.4-1.4,12.25
	c0.86,1.86,1.97,4.65,12.76-7.26"/>
</svg>
