<?xml version="1.0" encoding="utf-8"?>
<!-- Generator: Adobe Illustrator 23.1.1, SVG Export Plug-In . SVG Version: 6.00 Build 0)  -->
<svg version="1.1" xmlns="http://www.w3.org/2000/svg" xmlns:xlink="http://www.w3.org/1999/xlink" x="0px" y="0px"
	 viewBox="0 0 404.24 241.77" style="enable-background:new 0 0 404.24 241.77;" xml:space="preserve">
<style type="text/css">
	.st0{fill:none;stroke:#20923A;stroke-width:1.2;stroke-linecap:round;stroke-linejoin:round;stroke-miterlimit:10;}
	.st1{fill:none;stroke:#7B2087;stroke-width:1.2;stroke-linecap:round;stroke-linejoin:round;stroke-miterlimit:10;}
</style>
<g id="레이어_2">
	<path class="st0" d="M58.98,241.77c0,0,0.82-6.17,5.06-13.04c3.17-5.14,6.88-9.49,9.26-11.71c6.53-6.09,16.34-12.62,24.66-16.44
		c12.31-5.65,64.55-26.57,70.97-29.4s38.64-17.8,52.37-30.07c13.73-12.27,10.4-8.93,21.23-20.22s24.69-33.44,29.76-46.54
		s11.19-28.62,10.81-40.19c-0.1-2.92-0.38-8.33-2.69-13.53c-2.46-5.53-4.65-8.72-7.94-10.99c-1.85-1.28-4.06-2.26-6.85-3.21
		c-4.03-1.37-8-1.37-11.59-0.2c-5.63,1.84-10.35,6.59-12.95,13.56c-4.26,11.41-4.03,22.78,0.47,36.29
		c4.5,13.51,14.3,29.15,18.12,35.25c3.81,6.1,26.32,42.09,29.77,48.23c3.45,6.14,14.15,26.72,17.05,34.04s9.36,24.23,11.2,36.11
		c1.84,11.88,2.93,20.09,2.68,26.32"/>
	<path class="st1" d="M5.35,232.45c0,0,4.85-14.33,15.77-24.42c10.91-10.09,23.23-18.09,42.51-24.96
		c19.29-6.87,45.62-12.58,70.06-13.79c24.44-1.21,39.83-1.55,48.74-1.61c8.91-0.06,57.26-0.45,71.54-1.76
		c14.28-1.32,39.5-4.7,49.74-7.48s26.22-6.5,43.58-16.66c17.36-10.16,29.55-22.15,34.5-29.93s11.03-18.47,12.77-26.82
		s3.02-18.32,2.51-24.78s-4.67-19.99-9.54-24.96c-4.86-4.98-11.94-12.63-23.81-9.32c-11.87,3.31-17.85,15.15-19.92,21.07
		c-2.07,5.92-4.18,12.14-4.8,25.34s5.27,29.36,6.63,33.06"/>
</g>
<g id="레이어_3">
</g>
</svg>
