<?xml version="1.0" encoding="utf-8"?>
<!-- Generator: Adobe Illustrator 23.1.1, SVG Export Plug-In . SVG Version: 6.00 Build 0)  -->
<svg version="1.1" id="레이어_2" xmlns="http://www.w3.org/2000/svg" xmlns:xlink="http://www.w3.org/1999/xlink" x="0px"
	 y="0px" viewBox="0 0 372 65" style="enable-background:new 0 0 372 65;" xml:space="preserve">
<style type="text/css">
	.st0{fill:#FFFFFF;}
</style>
<g>
	<g>
		<path d="M83.32,17.01l8.95,0l6.42,23.24h0.41l6.34-23.24l9.03,0l-8.78,29.66l-13.63,0L83.32,17.01z"/>
		<path d="M124.7,17.01l8.74,0l0,29.66l-8.74,0L124.7,17.01z"/>
		<path d="M152.95,24.18l-9.28,0v-7.17l27.29,0v7.17l-9.28,0l0,22.49l-8.74,0L152.95,24.18z"/>
		<path d="M176.07,31.84c0-9.44,6.71-15.41,16.65-15.41c9.9,0,16.61,5.96,16.61,15.41s-6.71,15.45-16.61,15.45
			C182.78,47.29,176.07,41.29,176.07,31.84z M200.59,31.84c0-4.97-3.19-8.28-7.87-8.28s-7.91,3.31-7.91,8.28
			c0,5.01,3.23,8.28,7.91,8.28C197.4,40.13,200.59,36.85,200.59,31.84z"/>
	</g>
	<path d="M231.78,17.3l8.74,0l0,22.2l12.8,0v7.46l-21.54,0L231.78,17.3z"/>
	<path d="M271.46,17.3l12.84,0l9.28,29.66l-8.99,0l-1.41-4.52l-10.64,0l-1.41,4.52l-8.99,0L271.46,17.3z M281.48,36.23l-3.4-11.51
		h-0.41l-3.4,11.51L281.48,36.23z"/>
	<path d="M303.81,17.3l15.2,0c7,0,11.14,3.23,11.14,8.2c0,3.06-1.9,5.3-4.31,6.13v0.42c2.94,0.79,5.14,3.4,5.14,6.92
		c0,5.09-4.27,7.99-11.18,7.99l-15.99,0L303.81,17.3z M317.31,29.19c2.24,0,3.81-1.16,3.81-2.82c0-1.66-1.57-2.78-3.81-2.78l-4.76,0
		v5.59L317.31,29.19z M317.9,40.66c2.32,0,4.06-1.28,4.06-3.07c0-1.74-1.74-3.02-4.06-3.02l-5.34,0l0,6.09L317.9,40.66z"/>
	<path d="M339.57,36.9l8.2,0c0.04,2.48,2.07,4.1,5.63,4.1c2.82,0,4.64-1.04,4.64-2.86c0-2.15-2.44-2.65-5.47-3.06
		c-5.09-0.7-12.8-1.33-12.8-8.95c0-5.88,5.05-9.69,12.88-9.69c7.87,0,13.13,4.22,13.13,10.35l-7.91,0c0-2.61-1.95-4.1-4.93-4.1
		c-2.77,0-4.43,1.16-4.43,2.82c0,2.24,2.94,2.61,6.38,3.11c5.05,0.75,11.89,1.82,11.89,8.99c0,5.88-5.43,9.69-13.71,9.69
		C344.96,47.29,339.57,43.03,339.57,36.9z"/>
</g>
<g>
	<path d="M60.66,49.71l-1.41-22.04l0,0c-0.48-6.42-1.04-12.84-1.64-19.25l0,0c0,0-0.08-1.52-0.14-2.73
		c0.29-4.34-2.38-4.33-2.38-4.33h-0.97l-41.82,0c-1.94,0.1-4.08-0.1-4.17,2.25c-0.63,15.96-2.56,30.52-5.8,46.15
		c-0.02,0.09-0.03,0.19-0.04,0.29c-0.07,0.49-0.07,0.89-0.01,1.24l0,0c0,0,0,0.03,0.01,0.07c0.01,0.05,0.02,0.1,0.04,0.16
		c0.01,0.04,0.02,0.08,0.03,0.12c0.01,0.04,0.02,0.08,0.04,0.12c0.53,1.63,3.2,7.17,15.58,10.41v0c4.26,1.19,8.78,1.59,12.61,1.46
		c11.07-0.38,21.22-5.1,29.81-11.87C61.16,51.14,60.76,50.4,60.66,49.71z"/>
	<g>
		<path class="st0" d="M40.91,22.3c1.61,0,2.71-1.07,2.71-2.71c0-1.63-1.1-2.71-2.71-2.71c-1.61,0-2.72,1.09-2.72,2.71
			C38.19,21.23,39.3,22.3,40.91,22.3z"/>
		<path class="st0" d="M23.65,22.3c1.61,0,2.71-1.07,2.71-2.71c0-1.63-1.1-2.71-2.71-2.71c-1.61,0-2.72,1.09-2.72,2.71
			C20.93,21.23,22.04,22.3,23.65,22.3z"/>
		<path class="st0" d="M51.72,38.25c-0.03-0.03-0.06-0.06-0.1-0.08c-0.02-0.01-0.04-0.02-0.05-0.03c-0.91-0.66-2.18-1.29-2.18-1.29
			l0,0c-0.16-0.08-0.31-0.17-0.48-0.24c-0.41-0.18-0.85-0.31-1.27-0.46c-0.82-0.29-1.63-0.58-2.46-0.84c0,0,0,0-0.01,0
			c0,0,0,0-0.01,0c-0.01,0-0.02,0-0.03-0.01c-0.02,0-0.04-0.01-0.07-0.02c-0.01,0-0.02,0-0.03-0.01c0,0,0,0-0.01,0c0,0,0,0,0,0
			c-2.42-0.8-4.94-0.53-4.94-0.53l0,0c-1.13,0.07-3.23,0.75-3.95,1c-0.05,0.02-0.1,0.03-0.15,0.05c-0.07,0.02-0.1,0.04-0.1,0.04l0,0
			c-0.41,0.15-0.82,0.32-1.23,0.46c-0.08,0.03-0.16,0.05-0.24,0.08c-1.44,0.43-2.56,0.41-3.14,0.36c-0.78-0.1-1.56-0.26-2.13-0.39
			c-0.28-0.06-0.56-0.13-0.84-0.2c-3.36-0.84-7.02-2-10.45-0.77c-1.78,0.63-3.24,1.87-4.94,2.66c-0.26,0.12-0.23,0.4-0.07,0.57
			c0,0,0.01,0.03,0.07,0.06c0.05,0.03,0.11,0.06,0.17,0.06c0.1,0.03,0.24,0.05,0.45,0.06c0.01,0,0.01,0,0.02,0c0.02,0,0.03,0,0.05,0
			c0.02,0,0.04,0,0.06,0c0,0,0.01,0,0.01,0c0.07,0,0.13-0.01,0.2-0.01c0.03,0,0.07,0,0.1,0l0,0c0.24-0.01,0.48-0.03,0.72-0.04
			c0.93-0.05,2.48-0.12,3.73-0.16l0.15,0l6.37-0.04h2.71h8.82l2.54,0.06c0.04,0,4.57,0.11,7.62,0.23c0.77,0.04,1.55,0.09,2.32,0.14
			c0,0,0.01,0,0.01,0c0.1,0,0.2,0,0.3,0.01h1.76c0.01,0,0.03,0,0.04,0c0,0,0.01,0,0.01,0c0.02,0,0.04,0,0.06,0c0.01,0,0.02,0,0.02,0
			c0.01,0,0.03,0,0.04-0.01c0.02,0,0.03-0.01,0.05-0.01c0.17-0.04,0.33-0.1,0.46-0.22C51.83,38.59,51.86,38.4,51.72,38.25z"/>
		<path class="st0" d="M28.13,34.12C28.13,34.12,28.13,34.12,28.13,34.12c0,0.02,0.01,0.02,0.01,0.03c0,0.01,0,0.01,0,0.02
			c0,0.01,0,0.01,0.01,0.02c0.07,0.23,0.45,1.01,2.19,1.46v0c0.6,0.17,1.23,0.22,1.77,0.2c1.55-0.05,2.98-0.72,4.19-1.67
			c0.09-0.07,0.13-0.16,0.13-0.24l0,0l0,0c0-0.03,0-0.05-0.01-0.08l-0.13-0.99l0,0c-0.01-0.16-0.02-0.32-0.03-0.48
			c-0.03-0.52-0.07-1.03-0.11-1.55c-0.07-0.97-0.15-1.95-0.25-2.92l0,0c0,0-0.01-0.21-0.02-0.38c0.04-0.61-0.33-0.61-0.33-0.61
			h-0.14h-5.87c-0.18-0.02-0.57-0.01-0.59,0.32c-0.09,2.24-0.36,4.47-0.81,6.66c0,0.01,0,0.03-0.01,0.04
			C28.12,34.01,28.12,34.07,28.13,34.12L28.13,34.12z"/>
	</g>
</g>
</svg>
